<svg xmlns="http://www.w3.org/2000/svg" width="18" height="16" viewBox="0 0 18 16">
  <path id="Контур_1" data-name="Контур 1" d="M17.25,2H4.509L4.236.606A.75.75,0,0,0,3.5,0H.375A.375.375,0,0,0,0,.375v.75A.375.375,0,0,0,.375,1.5H2.882L5.057,12.616A2,2,0,1,0,8.232,13h4.536a2,2,0,1,0,3.117-.442l.032-.149a.75.75,0,0,0-.733-.909H6.367L6.074,10h9.763a.75.75,0,0,0,.733-.591l1.413-6.5A.75.75,0,0,0,17.25,2ZM6.5,14.75A.75.75,0,1,1,7.25,14,.751.751,0,0,1,6.5,14.75Zm8,0a.75.75,0,1,1,.75-.75A.751.751,0,0,1,14.5,14.75Zm.732-6.25H5.781L4.8,3.5H16.319l-1.087,5Z" fill="#880707"/>
</svg>
