<svg xmlns="http://www.w3.org/2000/svg" width="36" height="32" viewBox="0 0 36 32">
  <path id="Контур_7" data-name="Контур 7" d="M34.5,4H8.08L7.559,1.224A1.5,1.5,0,0,0,6.085,0H.75A.75.75,0,0,0,0,.75v.5A.75.75,0,0,0,.75,2H5.67l4.37,23.309A4,4,0,1,0,16.464,26h9.073a4,4,0,1,0,6.252-.867A1.5,1.5,0,0,0,30.333,24H11.83l-.75-4H31.791a1.5,1.5,0,0,0,1.468-1.194l2.708-13A1.5,1.5,0,0,0,34.5,4ZM15,28a2,2,0,1,1-2-2A2,2,0,0,1,15,28Zm14,2a2,2,0,1,1,2-2A2,2,0,0,1,29,30Zm2.385-12H10.7L8.455,6h25.43Z" />
</svg>
