<svg xmlns="http://www.w3.org/2000/svg" width="17.5" height="14" viewBox="0 0 17.5 14">
  <path id="Контур_10" data-name="Контур 10" d="M17.063,10.063h-.437V6.888A1.98,1.98,0,0,0,16.048,5.5L13.754,3.2a1.985,1.985,0,0,0-1.392-.577h-.987V1.531A1.532,1.532,0,0,0,9.844,0H1.531A1.532,1.532,0,0,0,0,1.531V9.844a1.532,1.532,0,0,0,1.531,1.531H1.75a2.625,2.625,0,0,0,5.25,0h3.5a2.625,2.625,0,1,0,5.25,0h1.313a.439.439,0,0,0,.438-.437V10.5A.439.439,0,0,0,17.063,10.063ZM4.375,12.688a1.312,1.312,0,1,1,1.312-1.312A1.313,1.313,0,0,1,4.375,12.688Zm5.688-2.625H6.636a2.6,2.6,0,0,0-4.523,0H1.531a.219.219,0,0,1-.219-.219V1.531a.219.219,0,0,1,.219-.219H9.844a.219.219,0,0,1,.219.219Zm1.312-6.125h.987a.672.672,0,0,1,.465.191l2,2H11.375Zm1.75,8.75a1.312,1.312,0,1,1,1.313-1.312A1.313,1.313,0,0,1,13.125,12.688Zm2.188-2.759a2.607,2.607,0,0,0-3.938-.5V7.438h3.938Z"/>
</svg>
