<svg xmlns="http://www.w3.org/2000/svg" width="50" height="49.986" viewBox="0 0 50 49.986">
  <path id="Контур_58" data-name="Контур 58" d="M9,0A10.79,10.79,0,0,0,2.124,2.218,8.14,8.14,0,0,0,.094,4.561a1.006,1.006,0,1,0,1.812.875A5.415,5.415,0,0,1,3.374,3.78,8.791,8.791,0,0,1,8.34,2.093l16.837,42.7a1.021,1.021,0,0,0,.539.558,1,1,0,0,0,.773,0L48.856,36.61a1,1,0,0,0-.718-1.874l-21.46,8.4L9.934.625A1,1,0,0,0,9,0ZM36.954,0a1.054,1.054,0,0,0-.187.062L16.337,8.215A1,1,0,0,0,15.775,9.5l3,7.528,2.874,7.153a1.05,1.05,0,0,0,.062.187.838.838,0,0,0,.094.187l2.968,7.5L27.614,39.2a1.02,1.02,0,0,0,.539.558,1,1,0,0,0,.773,0l20.429-8.122a1.021,1.021,0,0,0,.558-.539,1,1,0,0,0,0-.773l-5.9-14.807-.031-.031a.843.843,0,0,0-.094-.187L38.079.625A1,1,0,0,0,37.048,0Zm-.375,2.312,5.185,12.995-2.5,1L23.178,22.678l-2.53-6.4L18.024,9.684ZM32.05,6.279a1.168,1.168,0,0,0-.125.031,1.081,1.081,0,0,0-.156.062L24.334,9.34a1,1,0,1,0,.718,1.843l7.435-2.936a1.008,1.008,0,0,0-.437-1.968ZM42.514,17.149l5.154,13.026L29.113,37.548l-2.5-6.248-2.686-6.747,1.125-.437Zm-4.467,3.967a1.147,1.147,0,0,0-.125.031.965.965,0,0,0-.25.094l-7.435,2.936a1.009,1.009,0,0,0,.75,1.874l7.435-2.968a1,1,0,1,0-.375-1.968ZM18.992,39.984a5,5,0,1,0,5,5A5.013,5.013,0,0,0,18.992,39.984Zm0,2a3,3,0,1,1-3,3A2.985,2.985,0,0,1,18.992,41.983Z" transform="translate(0.007 0.005)" fill="#fafafa"/>
</svg>
