<svg xmlns="http://www.w3.org/2000/svg" width="25.751" height="25.61" viewBox="0 0 25.751 25.61">
  <path id="Контур_6" data-name="Контур 6" d="M10.156.219a.791.791,0,0,0-.719.313L7.75,2.813l-2.844.094a.829.829,0,0,0-.781.688L3.688,6.406,1.219,7.813a.826.826,0,0,0-.375.969l.906,2.688L.25,13.875a.786.786,0,0,0,.125,1l2.031,1.969-.219,2.844a.815.815,0,0,0,.594.844l2.719.781,1.094,2.594a.817.817,0,0,0,.906.5l2.781-.562L12.5,25.625a.76.76,0,0,0,1,0l2.219-1.781,2.781.563a.8.8,0,0,0,.906-.469L20.5,21.313l2.719-.781a.818.818,0,0,0,.594-.844l-.219-2.844,2.031-1.969a.786.786,0,0,0,.125-1l-1.5-2.406.906-2.688a.827.827,0,0,0-.375-.969L22.313,6.406l-.437-2.812a.829.829,0,0,0-.781-.687L18.25,2.813,16.563.531a.814.814,0,0,0-1-.25L13,1.5,10.438.281A.775.775,0,0,0,10.156.219ZM9,7.031a2.745,2.745,0,0,1,2.938,2.938,2.955,2.955,0,0,1-.781,2.156A2.889,2.889,0,0,1,9,12.938a3.308,3.308,0,0,1-1.625-.375,2.383,2.383,0,0,1-1-1.094,3.487,3.487,0,0,1-.344-1.5A3.364,3.364,0,0,1,6.375,8.5a2.364,2.364,0,0,1,1-1.094A3.308,3.308,0,0,1,9,7.031Zm6.406.094H17L10.625,18.906H9.063ZM9.031,8.406a.658.658,0,0,0-.562.281,2.338,2.338,0,0,0-.312,1.344,2.338,2.338,0,0,0,.313,1.344.7.7,0,0,0,1.125,0,2.338,2.338,0,0,0,.313-1.344,2.355,2.355,0,0,0-.312-1.344A.644.644,0,0,0,9.031,8.406ZM17,13.094a2.891,2.891,0,0,1,2.156.781,2.843,2.843,0,0,1,.813,2.094A2.746,2.746,0,0,1,17,18.875a3.247,3.247,0,0,1-1.594-.375,2.378,2.378,0,0,1-1.031-1.062,3.378,3.378,0,0,1-.312-1.469,3.232,3.232,0,0,1,.313-1.437,2.378,2.378,0,0,1,1.031-1.062A3.247,3.247,0,0,1,17,13.094Zm-.031,1.281a.631.631,0,0,0-.562.281A2.337,2.337,0,0,0,16.094,16a2.337,2.337,0,0,0,.313,1.344.644.644,0,0,0,.563.281.658.658,0,0,0,.563-.281A2.338,2.338,0,0,0,17.844,16a2.463,2.463,0,0,0-.312-1.375A.635.635,0,0,0,16.969,14.375Z" transform="translate(-0.125 -0.203)" fill="#880707"/>
</svg>
