<svg xmlns="http://www.w3.org/2000/svg" width="15" height="14.918" viewBox="0 0 15 14.918">
  <path id="Контур_12" data-name="Контур 12" d="M5.968.212a.461.461,0,0,0-.419.182L4.566,1.723,2.91,1.778a.483.483,0,0,0-.455.4L2.2,3.816.762,4.635A.481.481,0,0,0,.544,5.2l.528,1.566L.2,8.167a.458.458,0,0,0,.073.583L1.454,9.9l-.127,1.656a.475.475,0,0,0,.346.492l1.584.455.637,1.511a.476.476,0,0,0,.528.291l1.62-.328,1.292,1.038a.443.443,0,0,0,.583,0l1.292-1.038,1.62.328a.464.464,0,0,0,.528-.273l.637-1.529,1.584-.455a.476.476,0,0,0,.346-.492L13.8,9.9l1.183-1.147a.458.458,0,0,0,.073-.583l-.874-1.4L14.706,5.2a.481.481,0,0,0-.218-.564l-1.438-.819-.255-1.638a.483.483,0,0,0-.455-.4l-1.657-.055L9.7.394A.474.474,0,0,0,9.117.248L7.625.958,6.132.248A.451.451,0,0,0,5.968.212ZM5.295,4.18A1.6,1.6,0,0,1,7.006,5.891a1.721,1.721,0,0,1-.455,1.256,1.683,1.683,0,0,1-1.256.473A1.927,1.927,0,0,1,4.348,7.4a1.388,1.388,0,0,1-.583-.637,2.031,2.031,0,0,1-.2-.874,1.96,1.96,0,0,1,.2-.856A1.377,1.377,0,0,1,4.348,4.4,1.927,1.927,0,0,1,5.295,4.18Zm3.732.055h.928L6.241,11.1h-.91Zm-3.714.746a.383.383,0,0,0-.328.164,1.362,1.362,0,0,0-.182.783,1.362,1.362,0,0,0,.182.783.41.41,0,0,0,.655,0,1.362,1.362,0,0,0,.182-.783,1.372,1.372,0,0,0-.182-.783A.375.375,0,0,0,5.313,4.981ZM9.955,7.712a1.684,1.684,0,0,1,1.256.455,1.656,1.656,0,0,1,.473,1.22,1.6,1.6,0,0,1-1.729,1.693,1.892,1.892,0,0,1-.928-.218,1.385,1.385,0,0,1-.6-.619,1.968,1.968,0,0,1-.182-.856,1.882,1.882,0,0,1,.182-.837,1.385,1.385,0,0,1,.6-.619A1.892,1.892,0,0,1,9.955,7.712Zm-.018.746a.368.368,0,0,0-.328.164,1.361,1.361,0,0,0-.182.783,1.362,1.362,0,0,0,.182.783.375.375,0,0,0,.328.164.384.384,0,0,0,.328-.164,1.362,1.362,0,0,0,.182-.783,1.435,1.435,0,0,0-.182-.8A.37.37,0,0,0,9.937,8.458Z" transform="translate(-0.125 -0.203)" fill="#ffcf4d"/>
</svg>
