<svg xmlns="http://www.w3.org/2000/svg" width="39.721" height="43" viewBox="0 0 39.721 43">
  <path id="Контур_57" data-name="Контур 57" d="M7.308,0A2.748,2.748,0,0,0,4.567,2.741V10.32h1.72V2.741A1.034,1.034,0,0,1,7.308,1.72h28.81a1.051,1.051,0,0,1,1.129,1.021V10.32h1.72V2.741A2.81,2.81,0,0,0,36.118,0Zm13.6,7.9a31.339,31.339,0,0,0-8.063.833,6.964,6.964,0,0,0-2.231.967,2.337,2.337,0,0,0-1.021,1.612H9.566v.081L8.114,22.36H7.308a4.469,4.469,0,0,0-1.021.108V20.64H4.567v2.687a4.4,4.4,0,0,0-1.72,3.494V38.539a.574.574,0,0,0,0,.107V40.42A2.594,2.594,0,0,0,5.427,43h3.44a2.594,2.594,0,0,0,2.58-2.58V38.7h20.64v1.72A2.594,2.594,0,0,0,34.667,43h3.44a2.594,2.594,0,0,0,2.58-2.58V34.534a.9.9,0,0,0,0-.134V26.821a4.4,4.4,0,0,0-1.72-3.494V20.64h-1.72v1.827a4.468,4.468,0,0,0-1.021-.108h-.806L33.968,11.395v-.081h-.027a2.254,2.254,0,0,0-1.4-1.666,11.276,11.276,0,0,0-2.768-.941A42.524,42.524,0,0,0,20.907,7.9Zm0,1.72A40.979,40.979,0,0,1,29.4,10.4a10.491,10.491,0,0,1,2.365.752,1.428,1.428,0,0,1,.484.376l.027.027.86,6.611a66.605,66.605,0,0,1-11.368.752A66.6,66.6,0,0,1,10.4,18.168l.86-6.611a.755.755,0,0,0,.027-.081c0-.037.007-.148.323-.376a5.566,5.566,0,0,1,1.693-.726A30.253,30.253,0,0,1,20.907,9.621ZM3.868,11.1a1.92,1.92,0,0,0-1.371.591,1.92,1.92,0,0,0-.591,1.371v4.73a1.987,1.987,0,0,0,1.962,2.069h1.29A1.987,1.987,0,0,0,7.228,17.9v-4.73A1.987,1.987,0,0,0,5.266,11.1Zm34.508.108a1.959,1.959,0,0,0-1.962,1.962V17.9a1.959,1.959,0,0,0,1.962,1.962h1.29A2.022,2.022,0,0,0,41.628,17.9v-4.73a1.959,1.959,0,0,0-1.962-1.962ZM3.868,12.981c.027,0,.034-.007.027,0H5.266c-.1,0,.081.118.081.188V17.9c0-.1-.118.081-.188.081H3.868c.1,0-.081-.118-.081-.188v-4.7c-.007.007,0,0,0-.027.007-.01.037-.01.054-.027S3.858,12.987,3.868,12.981Zm34.508.081h1.29c.071,0,.081.107.081.107v4.7l-.054.054-.054.054H38.376c-.071,0-.107-.081-.107-.081v-4.73C38.268,13.1,38.376,13.061,38.376,13.061Zm-28.192,6.8a70.409,70.409,0,0,0,11.583.779,70.412,70.412,0,0,0,11.583-.779l.457,3.467a.858.858,0,0,0,.86.753h1.559a2.674,2.674,0,0,1,2.741,2.741V32.68H4.567V26.821A2.674,2.674,0,0,1,7.308,24.08H8.867a.858.858,0,0,0,.86-.753Zm6.934,2.526a2.218,2.218,0,0,0-2.2,2.2v4.139a2.218,2.218,0,0,0,2.2,2.2h9.3a2.218,2.218,0,0,0,2.2-2.2V24.591a2.218,2.218,0,0,0-2.2-2.2Zm0,1.666h9.3a.488.488,0,0,1,.538.537v4.139a.488.488,0,0,1-.538.538h-9.3a.488.488,0,0,1-.537-.538V24.591A.488.488,0,0,1,17.118,24.053ZM7.738,25.8a1.49,1.49,0,0,0-1.451,1.451v2.257A1.49,1.49,0,0,0,7.738,30.96h3.978a1.49,1.49,0,0,0,1.451-1.451V27.251A1.49,1.49,0,0,0,11.716,25.8Zm24.08,0a1.49,1.49,0,0,0-1.451,1.451v2.257a1.49,1.49,0,0,0,1.451,1.451H35.8a1.49,1.49,0,0,0,1.451-1.451V27.251A1.49,1.49,0,0,0,35.8,25.8ZM8.007,27.52h3.44v1.72H8.007Zm24.08,0h3.44v1.72h-3.44ZM4.567,34.4h34.4v2.58H4.567V34.534A.9.9,0,0,0,4.567,34.4Zm0,4.3h5.16v1.72a.857.857,0,0,1-.86.86H5.427a.857.857,0,0,1-.86-.86Zm29.24,0h5.16v1.72a.857.857,0,0,1-.86.86h-3.44a.857.857,0,0,1-.86-.86Z" transform="translate(-1.906)" fill="#fafafa"/>
</svg>
