<svg xmlns="http://www.w3.org/2000/svg" width="30.217" height="40" viewBox="0 0 30.217 40">
  <path id="Контур_56" data-name="Контур 56" d="M8.722,4A.889.889,0,0,0,8,4.889V40.438a.89.89,0,0,0,.889.889h5.332V39.549H9.777V5.777H36.439V39.549H24.886v1.777H37.328a.89.89,0,0,0,.889-.889V4.889A.89.89,0,0,0,37.328,4H8.722Zm5.5,10.665v1.777H32V14.665Zm0,5.332v1.777H32V20Zm5.332,7.11a2.12,2.12,0,0,0-1.666.917,2.116,2.116,0,0,0-1.833.333,2.059,2.059,0,0,0-.667,1.75,2.109,2.109,0,0,0-1.166,1.472,2.13,2.13,0,0,0,.611,1.75,2.153,2.153,0,0,0,.056,1.889,1.528,1.528,0,0,0,.222.25V43.1a.889.889,0,0,0,1.416.722l3.027-2.277,3.027,2.277A.889.889,0,0,0,24,43.1V35.467a1.528,1.528,0,0,0,.222-.25,2.006,2.006,0,0,0,.056-1.889,2.13,2.13,0,0,0,.611-1.75,2.109,2.109,0,0,0-1.166-1.472,2.058,2.058,0,0,0-.667-1.75,2.116,2.116,0,0,0-1.833-.333A2.156,2.156,0,0,0,19.553,27.107Zm1.777,1.083c.038.028.111.083.083.056l-.028.028C21.369,28.246,21.348,28.218,21.331,28.19Zm-1.777.694c.285,0,.312.052.389.278a.928.928,0,0,0,.222.361,1.081,1.081,0,0,0,.333.222.992.992,0,0,0,.472.111.9.9,0,0,0,.472-.111.487.487,0,0,1,.5,0c.149.121.149.163.056.444a.913.913,0,0,0-.056.305c0,.121.062.139.111.25a.889.889,0,0,0,.722.805.487.487,0,0,1,.333.333.441.441,0,0,1-.194.417.89.89,0,0,0-.417.75v.278a.876.876,0,0,0,.167.528,1.11,1.11,0,0,1,.028.444.441.441,0,0,1-.417.194.885.885,0,0,0-.861.333v.028c-.031.024-.017.021-.056.056-.01.01-.017-.01-.028,0a.888.888,0,0,0-.278.639c0,.236,0,.24-.194.306a1.082,1.082,0,0,0-.111.056c-.007,0,.017,0-.028,0a.681.681,0,0,1-.361-.194.879.879,0,0,0-.639-.25h-.333a.879.879,0,0,0-.639.25.454.454,0,0,1-.5.139.37.37,0,0,1-.194-.306,1.074,1.074,0,0,0-.194-.555.905.905,0,0,0-.25-.25.887.887,0,0,0-.778-.25.441.441,0,0,1-.417-.194c-.1-.177-.139-.243,0-.417a.894.894,0,0,0,.194-.555V33.05a.89.89,0,0,0-.417-.75A.441.441,0,0,1,16,31.884a.487.487,0,0,1,.333-.333.889.889,0,0,0,.722-.805c.049-.111.111-.129.111-.25a.913.913,0,0,0-.056-.305c-.094-.281-.094-.323.056-.444a.487.487,0,0,1,.5,0,.885.885,0,0,0,.889,0h.028l.028-.028a.414.414,0,0,0,.056-.028.893.893,0,0,0,.5-.528A.486.486,0,0,1,19.553,28.884Zm-2.666,8.054a1.794,1.794,0,0,0,.75.583l.028.028a2.174,2.174,0,0,0,1.861-.305c.007,0,.021,0,.028,0h.167a2,2,0,0,0,1,.444,2.476,2.476,0,0,0,.722-.167.166.166,0,0,1,.056-.028c.017-.007.038.01.056,0v-.028a1.7,1.7,0,0,0,.667-.5v4.36l-2.138-1.611a.885.885,0,0,0-1.055,0l-2.139,1.611Z" transform="translate(-8 -4)" fill="#fafafa"/>
</svg>
